<svg width="21" height="20" viewBox="0 0 21 20" fill="none" xmlns="http://www.w3.org/2000/svg">
<path d="M9.73915 1.18148C9.97864 0.444437 11.0214 0.444436 11.2608 1.18148L13.0146 6.57885C13.1217 6.90847 13.4288 7.13164 13.7754 7.13164H19.4505C20.2255 7.13164 20.5477 8.12333 19.9208 8.57885L15.3295 11.9146C15.0491 12.1183 14.9318 12.4794 15.0389 12.809L16.7926 18.2064C17.0321 18.9435 16.1885 19.5564 15.5615 19.1008L10.9702 15.7651C10.6898 15.5614 10.3102 15.5614 10.0298 15.7651L5.4385 19.1008C4.81153 19.5564 3.96794 18.9435 4.20742 18.2064L5.96113 12.809C6.06823 12.4794 5.95091 12.1183 5.67052 11.9146L1.07924 8.57885C0.45227 8.12333 0.77449 7.13164 1.54947 7.13164H7.2246C7.57118 7.13164 7.87834 6.90847 7.98544 6.57885L9.73915 1.18148Z" fill="url(#paint0_linear_627_9231)"/>
<defs>
<linearGradient id="paint0_linear_627_9231" x1="10.5" y1="-1.16016" x2="10.5" y2="22.8398" gradientUnits="userSpaceOnUse">
<stop stop-color="#004AAD"/>
<stop offset="1" stop-color="#5CE1E6"/>
</linearGradient>
</defs>
</svg>
