<svg width="50" height="50" viewBox="0 0 50 50" fill="none" xmlns="http://www.w3.org/2000/svg">
<rect width="50" height="50" rx="25" fill="#F6FCFF"/>
<path d="M34.091 19.9834C33.241 19.0434 31.821 18.5734 29.761 18.5734H29.521V18.5334C29.521 16.8534 29.521 14.7734 25.761 14.7734H24.241C20.481 14.7734 20.481 16.8634 20.481 18.5334V18.5834H20.241C18.171 18.5834 16.761 19.0534 15.911 19.9934C14.921 21.0934 14.951 22.5734 15.051 23.5834L15.061 23.6534L15.1385 24.4667C15.1527 24.6165 15.2334 24.7518 15.3593 24.8342C15.5991 24.9911 16.0004 25.2498 16.241 25.3834C16.381 25.4734 16.531 25.5534 16.681 25.6334C18.391 26.5734 20.271 27.2034 22.181 27.5134C22.271 28.4534 22.681 29.5534 24.871 29.5534C27.061 29.5534 27.491 28.4634 27.561 27.4934C29.601 27.1634 31.571 26.4534 33.351 25.4134C33.411 25.3834 33.451 25.3534 33.501 25.3234C33.8977 25.0992 34.3093 24.8229 34.6845 24.5523C34.7975 24.4708 34.8698 24.3447 34.8852 24.2062L34.901 24.0634L34.951 23.5934C34.961 23.5334 34.961 23.4834 34.971 23.4134C35.051 22.4034 35.031 21.0234 34.091 19.9834ZM26.091 26.8334C26.091 27.8934 26.091 28.0534 24.861 28.0534C23.631 28.0534 23.631 27.8634 23.631 26.8434V25.5834H26.091V26.8334ZM21.911 18.5734V18.5334C21.911 16.8334 21.911 16.2034 24.241 16.2034H25.761C28.091 16.2034 28.091 16.8434 28.091 18.5334V18.5834H21.911V18.5734Z" fill="#004AAD"/>
<path d="M33.8733 26.7349C34.2269 26.5666 34.6342 26.8469 34.5988 27.2369L34.2398 31.1907C34.0298 33.1907 33.2098 35.2307 28.8098 35.2307H21.1898C16.7898 35.2307 15.9698 33.1907 15.7598 31.2007L15.4191 27.4529C15.3841 27.0674 15.782 26.7874 16.1347 26.947C17.2741 27.4625 19.3772 28.3771 20.6764 28.7174C20.8407 28.7604 20.9736 28.878 21.0456 29.0319C21.6525 30.33 22.969 31.0207 24.8698 31.0207C26.752 31.0207 28.085 30.3034 28.694 29.0021C28.766 28.8481 28.8991 28.7305 29.0635 28.6873C30.443 28.3243 32.6816 27.3019 33.8733 26.7349Z" fill="#004AAD"/>
</svg>
