<svg width="18" height="17" viewBox="0 0 18 17" fill="none" xmlns="http://www.w3.org/2000/svg">
<path d="M0.667969 6.36608C0.667969 10.4185 4.01749 12.578 6.46941 14.5109C7.33464 15.193 8.16797 15.8352 9.0013 15.8352C9.83464 15.8352 10.668 15.193 11.5332 14.5109C13.9851 12.578 17.3346 10.4185 17.3346 6.36608C17.3346 2.31363 12.7512 -0.560282 9.0013 3.33569C5.25144 -0.560282 0.667969 2.31363 0.667969 6.36608Z" fill="#EE1D70"/>
<path d="M6.46941 14.5109L6.85634 14.0201L6.46941 14.5109ZM9.0013 3.33569L8.551 3.76911C8.66882 3.89152 8.8314 3.96069 9.0013 3.96069C9.17121 3.96069 9.33379 3.89152 9.45161 3.76911L9.0013 3.33569ZM11.5332 14.5109L11.9201 15.0017L11.5332 14.5109ZM6.46941 14.5109L6.85634 14.0201C5.59329 13.0244 4.21219 12.052 3.11654 10.8183C2.04232 9.60869 1.29297 8.19725 1.29297 6.36608H0.667969H0.0429688C0.0429688 8.58736 0.968383 10.2819 2.1819 11.6483C3.37399 12.9907 4.89361 14.0645 6.08248 15.0017L6.46941 14.5109ZM0.667969 6.36608H1.29297C1.29297 4.57369 2.30578 3.0706 3.68827 2.43866C5.03136 1.82473 6.83602 1.98731 8.551 3.76911L9.0013 3.33569L9.45161 2.90227C7.41672 0.788099 5.05471 0.439653 3.1686 1.3018C1.3219 2.14593 0.0429688 4.10602 0.0429688 6.36608H0.667969ZM6.46941 14.5109L6.08248 15.0017C6.50935 15.3382 6.96759 15.6971 7.43199 15.9684C7.89618 16.2397 8.42597 16.4602 9.0013 16.4602V15.8352V15.2102C8.7433 15.2102 8.43975 15.1095 8.06264 14.8892C7.68574 14.6689 7.2947 14.3656 6.85634 14.0201L6.46941 14.5109ZM11.5332 14.5109L11.9201 15.0017C13.109 14.0645 14.6286 12.9907 15.8207 11.6483C17.0342 10.2819 17.9596 8.58736 17.9596 6.36608H17.3346H16.7096C16.7096 8.19725 15.9603 9.60869 14.8861 10.8183C13.7904 12.052 12.4093 13.0244 11.1463 14.0201L11.5332 14.5109ZM17.3346 6.36608H17.9596C17.9596 4.10602 16.6807 2.14593 14.834 1.3018C12.9479 0.439653 10.5859 0.788099 8.551 2.90227L9.0013 3.33569L9.45161 3.76911C11.1666 1.98731 12.9712 1.82473 14.3143 2.43866C15.6968 3.0706 16.7096 4.57369 16.7096 6.36608H17.3346ZM11.5332 14.5109L11.1463 14.0201C10.7079 14.3656 10.3169 14.6689 9.93996 14.8892C9.56285 15.1095 9.2593 15.2102 9.0013 15.2102V15.8352V16.4602C9.57664 16.4602 10.1064 16.2397 10.5706 15.9684C11.035 15.6971 11.4933 15.3382 11.9201 15.0017L11.5332 14.5109Z" fill="#EE1D70"/>
</svg>
