<svg width="20" height="21" viewBox="0 0 20 21" fill="none" xmlns="http://www.w3.org/2000/svg">
<path d="M2.5 8.83317C2.5 5.69047 2.5 4.11913 3.47631 3.14281C4.45262 2.1665 6.02397 2.1665 9.16667 2.1665H10.8333C13.976 2.1665 15.5474 2.1665 16.5237 3.14281C17.5 4.11913 17.5 5.69047 17.5 8.83317V12.1665C17.5 15.3092 17.5 16.8805 16.5237 17.8569C15.5474 18.8332 13.976 18.8332 10.8333 18.8332H9.16667C6.02397 18.8332 4.45262 18.8332 3.47631 17.8569C2.5 16.8805 2.5 15.3092 2.5 12.1665V8.83317Z" stroke="#004AAD" stroke-width="1.25"/>
<path d="M6.66797 8.8335H13.3346" stroke="#004AAD" stroke-width="1.25" stroke-linecap="round"/>
<path d="M6.66797 12.1665H10.8346" stroke="#004AAD" stroke-width="1.25" stroke-linecap="round"/>
</svg>
