<svg width="37" height="37" viewBox="0 0 37 37" fill="none" xmlns="http://www.w3.org/2000/svg">
<path d="M10.25 14.7481H13.3438C13.509 15.3934 13.8843 15.9653 14.4105 16.3738C14.9367 16.7823 15.5839 17.004 16.25 17.004C16.9161 17.004 17.5633 16.7823 18.0895 16.3738C18.6157 15.9653 18.991 15.3934 19.1562 14.7481L26.75 14.7481C26.9489 14.7481 27.1397 14.6691 27.2803 14.5284C27.421 14.3877 27.5 14.197 27.5 13.9981C27.5 13.7992 27.421 13.6084 27.2803 13.4677C27.1397 13.3271 26.9489 13.2481 26.75 13.2481L19.1562 13.2481C18.991 12.6028 18.6157 12.0308 18.0895 11.6223C17.5633 11.2139 16.9161 10.9922 16.25 10.9922C15.5839 10.9922 14.9367 11.2139 14.4105 11.6223C13.8843 12.0308 13.509 12.6028 13.3438 13.2481H10.25C10.0511 13.2481 9.86032 13.3271 9.71967 13.4677C9.57902 13.6084 9.5 13.7992 9.5 13.9981C9.5 14.197 9.57902 14.3877 9.71967 14.5284C9.86032 14.6691 10.0511 14.7481 10.25 14.7481ZM16.25 12.4981C16.5467 12.4981 16.8367 12.586 17.0834 12.7509C17.33 12.9157 17.5223 13.15 17.6358 13.424C17.7494 13.6981 17.7791 13.9997 17.7212 14.2907C17.6633 14.5817 17.5204 14.849 17.3107 15.0587C17.1009 15.2685 16.8336 15.4114 16.5426 15.4692C16.2517 15.5271 15.9501 15.4974 15.676 15.3839C15.4019 15.2704 15.1676 15.0781 15.0028 14.8314C14.838 14.5848 14.75 14.2947 14.75 13.9981C14.75 13.6002 14.908 13.2187 15.1893 12.9374C15.4706 12.6561 15.8522 12.4981 16.25 12.4981ZM26.75 22.2481L25.1562 22.2481C24.991 21.6028 24.6157 21.0308 24.0895 20.6223C23.5633 20.2139 22.9161 19.9922 22.25 19.9922C21.5839 19.9922 20.9367 20.2139 20.4105 20.6223C19.8843 21.0308 19.509 21.6028 19.3438 22.2481H10.25C10.0511 22.2481 9.86032 22.3271 9.71967 22.4677C9.57902 22.6084 9.5 22.7992 9.5 22.9981C9.5 23.197 9.57902 23.3877 9.71967 23.5284C9.86032 23.6691 10.0511 23.7481 10.25 23.7481H19.3438C19.509 24.3934 19.8843 24.9653 20.4105 25.3738C20.9367 25.7823 21.5839 26.004 22.25 26.004C22.9161 26.004 23.5633 25.7823 24.0895 25.3738C24.6157 24.9653 24.991 24.3934 25.1562 23.7481L26.75 23.7481C26.9489 23.7481 27.1397 23.6691 27.2803 23.5284C27.421 23.3877 27.5 23.197 27.5 22.9981C27.5 22.7992 27.421 22.6084 27.2803 22.4677C27.1397 22.3271 26.9489 22.2481 26.75 22.2481ZM22.25 24.4981C21.9533 24.4981 21.6633 24.4101 21.4166 24.2453C21.17 24.0805 20.9777 23.8462 20.8642 23.5721C20.7506 23.298 20.7209 22.9964 20.7788 22.7054C20.8367 22.4145 20.9796 22.1472 21.1893 21.9374C21.3991 21.7276 21.6664 21.5848 21.9574 21.5269C22.2483 21.469 22.5499 21.4987 22.824 21.6123C23.0981 21.7258 23.3324 21.918 23.4972 22.1647C23.662 22.4114 23.75 22.7014 23.75 22.9981C23.75 23.3959 23.592 23.7774 23.3107 24.0587C23.0294 24.34 22.6478 24.4981 22.25 24.4981Z" fill="#1D4ED8"/>
</svg>
