<svg width="22" height="19" viewBox="0 0 22 19" fill="none" xmlns="http://www.w3.org/2000/svg">
<path d="M0.75 6.60219C0.75 11.4651 4.76943 14.0565 7.71173 16.376C8.75 17.1945 9.75 17.9651 10.75 17.9651C11.75 17.9651 12.75 17.1945 13.7883 16.376C16.7306 14.0565 20.75 11.4651 20.75 6.60219C20.75 1.73925 15.2498 -1.70945 10.75 2.96572C6.25016 -1.70945 0.75 1.73925 0.75 6.60219Z" fill="white"/>
<path d="M7.71173 16.376L7.24742 16.965V16.965L7.71173 16.376ZM10.75 2.96572L10.2096 3.48582C10.351 3.63272 10.5461 3.71572 10.75 3.71572C10.9539 3.71572 11.149 3.63272 11.2904 3.48582L10.75 2.96572ZM13.7883 16.376L13.324 15.787V15.787L13.7883 16.376ZM7.71173 16.376L8.17605 15.787C6.66039 14.5922 5.00307 13.4253 3.68829 11.9449C2.39922 10.4933 1.5 8.79959 1.5 6.60219H0.75H0C0 9.26772 1.1105 11.3011 2.56672 12.9409C3.99723 14.5517 5.82077 15.8403 7.24742 16.965L7.71173 16.376ZM0.75 6.60219H1.5C1.5 4.45132 2.71537 2.64761 4.37436 1.88928C5.98607 1.15256 8.15166 1.34766 10.2096 3.48582L10.75 2.96572L11.2904 2.44562C8.8485 -0.0913908 6.01409 -0.509526 3.75076 0.525048C1.53471 1.53801 0 3.89012 0 6.60219H0.75ZM7.71173 16.376L7.24742 16.965C7.75965 17.3688 8.30955 17.7994 8.86682 18.125C9.42386 18.4505 10.0596 18.7151 10.75 18.7151V17.9651V17.2151C10.4404 17.2151 10.0761 17.0943 9.62361 16.8299C9.17132 16.5656 8.70208 16.2017 8.17605 15.787L7.71173 16.376ZM13.7883 16.376L14.2526 16.965C15.6792 15.8403 17.5028 14.5517 18.9333 12.9409C20.3895 11.3011 21.5 9.26772 21.5 6.60219H20.75H20C20 8.79959 19.1008 10.4933 17.8117 11.9449C16.4969 13.4253 14.8396 14.5922 13.324 15.787L13.7883 16.376ZM20.75 6.60219H21.5C21.5 3.89012 19.9653 1.53801 17.7492 0.525048C15.4859 -0.509526 12.6515 -0.0913908 10.2096 2.44562L10.75 2.96572L11.2904 3.48582C13.3483 1.34766 15.5139 1.15256 17.1256 1.88928C18.7846 2.64761 20 4.45132 20 6.60219H20.75ZM13.7883 16.376L13.324 15.787C12.7979 16.2017 12.3287 16.5656 11.8764 16.8299C11.4239 17.0943 11.0596 17.2151 10.75 17.2151V17.9651V18.7151C11.4404 18.7151 12.0761 18.4505 12.6332 18.125C13.1905 17.7994 13.7403 17.3688 14.2526 16.965L13.7883 16.376Z" fill="white"/>
</svg>
