<svg width="20" height="21" viewBox="0 0 20 21" fill="none" xmlns="http://www.w3.org/2000/svg">
<path d="M1.66797 10.4998C1.66797 6.57147 1.66797 4.60728 2.88836 3.38689C4.10875 2.1665 6.07293 2.1665 10.0013 2.1665C13.9297 2.1665 15.8939 2.1665 17.1142 3.38689C18.3346 4.60728 18.3346 6.57147 18.3346 10.4998C18.3346 14.4282 18.3346 16.3924 17.1142 17.6128C15.8939 18.8332 13.9297 18.8332 10.0013 18.8332C6.07293 18.8332 4.10875 18.8332 2.88836 17.6128C1.66797 16.3924 1.66797 14.4282 1.66797 10.4998Z" stroke="#004AAD" stroke-width="1.25"/>
<circle cx="13.3346" cy="7.16667" r="1.66667" stroke="#004AAD" stroke-width="1.25"/>
<path d="M1.66797 10.9169L3.12762 9.63976C3.88702 8.97529 5.03153 9.0134 5.74504 9.72691L9.31981 13.3017C9.8925 13.8744 10.794 13.9525 11.4566 13.4868L11.7051 13.3121C12.6587 12.642 13.9487 12.7196 14.815 13.4993L17.5013 15.9169" stroke="#004AAD" stroke-width="1.25" stroke-linecap="round"/>
</svg>
