<svg width="17" height="19" viewBox="0 0 17 19" fill="none" xmlns="http://www.w3.org/2000/svg">
<path d="M15.9141 13.1609V8.99972C15.9141 5.42588 15.9141 3.63896 14.8157 2.52871C13.7174 1.41846 11.9496 1.41846 8.41406 1.41846C4.87853 1.41846 3.11076 1.41846 2.01241 2.52871C0.914062 3.63896 0.914062 5.42588 0.914062 8.99972V13.1609C0.914062 15.7414 0.914062 17.0316 1.52582 17.5954C1.81757 17.8643 2.18585 18.0332 2.57816 18.0781C3.40075 18.1722 4.36134 17.3226 6.28253 15.6233C7.13175 14.8722 7.55636 14.4966 8.04763 14.3977C8.28954 14.3489 8.53859 14.3489 8.7805 14.3977C9.27177 14.4966 9.69638 14.8722 10.5456 15.6233C12.4668 17.3226 13.4274 18.1722 14.25 18.0781C14.6423 18.0332 15.0106 17.8643 15.3023 17.5954C15.9141 17.0316 15.9141 15.7414 15.9141 13.1609Z" fill="#83CD2D" stroke="#83CD2D" stroke-width="1.25"/>
</svg>
