<svg width="33" height="33" viewBox="0 0 33 33" fill="none" xmlns="http://www.w3.org/2000/svg">
<path d="M15.5043 1.69902C15.6165 0.488786 17.3835 0.488783 17.4957 1.69902L18.5871 13.4695C18.6315 13.9488 19.0112 14.3284 19.4905 14.3729L31.2609 15.4642C32.4712 15.5764 32.4712 17.3435 31.2609 17.4557L19.4905 18.5471C19.0112 18.5915 18.6315 18.9711 18.5871 19.4505L17.4957 31.2209C17.3835 32.4311 15.6165 32.4311 15.5043 31.2209L14.4129 19.4505C14.3685 18.9711 13.9888 18.5915 13.5095 18.5471L1.73906 17.4557C0.528825 17.3435 0.528822 15.5764 1.73906 15.4642L13.5095 14.3729C13.9888 14.3284 14.3685 13.9488 14.4129 13.4695L15.5043 1.69902Z" fill="#EE1D70"/>
</svg>
