<svg width="20" height="21" viewBox="0 0 20 21" fill="none" xmlns="http://www.w3.org/2000/svg">
<path d="M1.66797 10.0835C1.66797 7.34393 1.66797 5.97414 2.4246 5.05219C2.56311 4.8834 2.71788 4.72864 2.88666 4.59013C3.80862 3.8335 5.1784 3.8335 7.91797 3.8335C10.6575 3.8335 12.0273 3.8335 12.9493 4.59013C13.1181 4.72864 13.2728 4.8834 13.4113 5.05219C14.168 5.97414 14.168 7.34393 14.168 10.0835V10.9168C14.168 13.6564 14.168 15.0262 13.4113 15.9481C13.2728 16.1169 13.1181 16.2717 12.9493 16.4102C12.0273 17.1668 10.6575 17.1668 7.91797 17.1668C5.1784 17.1668 3.80862 17.1668 2.88666 16.4102C2.71788 16.2717 2.56311 16.1169 2.4246 15.9481C1.66797 15.0262 1.66797 13.6564 1.66797 10.9168V10.0835Z" stroke="#004AAD" stroke-width="1.25"/>
<path d="M14.168 8.41666L14.7166 8.14235C16.3382 7.33156 17.149 6.92617 17.7418 7.29256C18.3346 7.65895 18.3346 8.56544 18.3346 10.3784V10.6216C18.3346 12.4346 18.3346 13.341 17.7418 13.7074C17.149 14.0738 16.3382 13.6684 14.7166 12.8576L14.168 12.5833V8.41666Z" stroke="#004AAD" stroke-width="1.25"/>
</svg>
